<svg width="24" height="24" viewBox="0 0 24 24" fill="none" xmlns="http://www.w3.org/2000/svg">
  <circle cx="12" cy="12" r="3" stroke="currentColor" stroke-width="2" stroke-linecap="round" stroke-linejoin="round"/>
  <path d="M12,2 L12,4 M19,5 L17.5,6.5 M22,12 L20,12 M19,19 L17.5,17.5 M12,22 L12,20 M5,19 L6.5,17.5 M2,12 L4,12 M5,5 L6.5,6.5" stroke="currentColor" stroke-width="2" stroke-linecap="round"/>
  <path d="M10,1.5 L10,0 L14,0 L14,1.5 M17.5,4 L19,2.5 L21.5,5 L20,6.5 M22.5,10 L24,10 L24,14 L22.5,14 M20,17.5 L21.5,19 L19,21.5 L17.5,20 M14,22.5 L14,24 L10,24 L10,22.5 M6.5,20 L5,21.5 L2.5,19 L4,17.5 M1.5,14 L0,14 L0,10 L1.5,10 M4,6.5 L2.5,5 L5,2.5 L6.5,4" stroke="currentColor" stroke-width="1.5" stroke-linecap="round" stroke-linejoin="round"/>
</svg>
