<?xml version="1.0" encoding="UTF-8" standalone="no"?>
<!DOCTYPE svg PUBLIC "-//W3C//DTD SVG 1.1//EN" "http://www.w3.org/Graphics/SVG/1.1/DTD/svg11.dtd">
<svg width="100%" height="100%" viewBox="0 0 92 92" version="1.1" xmlns="http://www.w3.org/2000/svg" xmlns:xlink="http://www.w3.org/1999/xlink" xml:space="preserve" xmlns:serif="http://www.serif.com/" style="fill-rule:evenodd;clip-rule:evenodd;stroke-linejoin:round;stroke-miterlimit:2;">
    <g transform="matrix(1,0,0,1,-257.212964,-11.209454)">
        <g transform="matrix(1,0,0,1,-46.502536,-10.266296)">
            <path d="M355.191,21.859L357.573,30.203C358.577,30.428 359.57,30.695 360.552,31.001L366.788,24.966C370.432,26.481 373.865,28.463 377,30.862L374.891,39.279C375.647,39.976 376.374,40.704 377.071,41.46L385.489,39.351C387.888,42.485 389.87,45.918 391.385,49.563L385.349,55.798C385.656,56.78 385.922,57.774 386.148,58.777L394.492,61.159C395.002,65.073 395.002,69.037 394.492,72.951L386.148,75.334C385.922,76.337 385.656,77.331 385.349,78.312L391.385,84.548C389.87,88.193 387.888,91.625 385.489,94.76L377.071,92.651C376.374,93.407 375.647,94.134 374.891,94.831L377,103.249C373.865,105.648 370.432,107.63 366.788,109.145L360.552,103.11C359.57,103.416 358.577,103.682 357.573,103.908L355.191,112.252C351.277,112.763 347.313,112.763 343.399,112.252L341.017,103.908C340.013,103.682 339.02,103.416 338.038,103.11L331.803,109.145C328.158,107.63 324.725,105.648 321.591,103.249L323.7,94.831C322.943,94.134 322.216,93.407 321.519,92.651L313.102,94.76C310.702,91.625 308.72,88.193 307.206,84.548L313.241,78.312C312.934,77.331 312.668,76.337 312.443,75.334L304.098,72.951C303.588,69.037 303.588,65.073 304.098,61.159L312.443,58.777C312.668,57.774 312.934,56.78 313.241,55.798L307.206,49.563C308.72,45.918 310.702,42.485 313.102,39.351L321.519,41.46C322.216,40.704 322.943,39.976 323.7,39.279L321.591,30.862C324.725,28.463 328.158,26.481 331.803,24.966L338.038,31.001C339.02,30.695 340.013,30.428 341.017,30.203L343.399,21.859C347.313,21.348 351.277,21.348 355.191,21.859ZM349.295,49.77C358.835,49.77 366.581,57.515 366.581,67.055C366.581,76.596 358.835,84.341 349.295,84.341C339.755,84.341 332.009,76.596 332.009,67.055C332.009,57.515 339.755,49.77 349.295,49.77Z" style="fill:rgb(58,59,59);"/>
        </g>
        <g transform="matrix(6.641355,0,0,6.641355,196.530914,-49.472636)">
            <circle cx="16" cy="16" r="3.5" style="fill:currentColor;"/>
        </g>
        <g transform="matrix(6.491801,0,0,6.491801,198.923767,-47.079782)">
            <circle cx="16" cy="16" r="1.8" style="fill:rgb(36,36,36);"/>
        </g>
    </g>
</svg>
