<?xml version="1.0" encoding="UTF-8" standalone="no"?>
<!DOCTYPE svg PUBLIC "-//W3C//DTD SVG 1.1//EN" "http://www.w3.org/Graphics/SVG/1.1/DTD/svg11.dtd">
<svg width="100%" height="100%" viewBox="0 0 89 89" version="1.1" xmlns="http://www.w3.org/2000/svg" xmlns:xlink="http://www.w3.org/1999/xlink" xml:space="preserve" xmlns:serif="http://www.serif.com/" style="fill-rule:evenodd;clip-rule:evenodd;stroke-linejoin:round;stroke-miterlimit:2;">
    <g transform="matrix(1,0,0,1,-385.860875,-15.886248)">
        <g transform="matrix(0.132332,-0.001549,0.001549,0.132332,429.974627,60)">
            <g transform="matrix(1,0,0,1,-400,-400)">
                <g transform="matrix(33.333333,0,0,33.333333,0,0)">
                    <path d="M22,12C22,17.523 17.523,22 12,22C6.477,22 2,17.523 2,12C2,6.477 6.477,2 12,2C17.523,2 22,6.477 22,12ZM14.11,8.419L15.592,9.903C16.598,10.909 17.101,11.413 16.984,11.956C16.866,12.498 16.2,12.749 14.868,13.249L13.946,13.595C13.59,13.729 13.411,13.796 13.274,13.916C13.213,13.968 13.159,14.027 13.113,14.092C13.007,14.24 12.956,14.424 12.855,14.791C12.625,15.628 12.51,16.046 12.236,16.202C12.12,16.268 11.99,16.302 11.857,16.302C11.542,16.302 11.235,15.995 10.623,15.382L10.15,14.909L8.531,16.53C8.238,16.823 7.763,16.823 7.47,16.531C7.177,16.238 7.177,15.763 7.469,15.47L9.089,13.848L8.643,13.4C8.034,12.79 7.729,12.486 7.727,12.172C7.726,12.037 7.762,11.903 7.829,11.786C7.986,11.514 8.401,11.4 9.231,11.171C9.599,11.07 9.783,11.019 9.931,10.912C9.998,10.864 10.058,10.809 10.111,10.746C10.23,10.608 10.296,10.428 10.427,10.069L10.761,9.158C11.255,7.811 11.501,7.137 12.046,7.017C12.59,6.897 13.096,7.404 14.11,8.419Z" style="fill:currentColor;"/>
                </g>
            </g>
        </g>
    </g>
</svg>
