<?xml version="1.0" encoding="UTF-8" standalone="no"?>
<!DOCTYPE svg PUBLIC "-//W3C//DTD SVG 1.1//EN" "http://www.w3.org/Graphics/SVG/1.1/DTD/svg11.dtd">
<svg width="100%" height="100%" viewBox="0 0 92 92" version="1.1" xmlns="http://www.w3.org/2000/svg" xmlns:xlink="http://www.w3.org/1999/xlink" xml:space="preserve" xmlns:serif="http://www.serif.com/" style="fill-rule:evenodd;clip-rule:evenodd;stroke-linejoin:round;stroke-miterlimit:2;">
    <g transform="matrix(1,0,0,1,-154.182852,-13.449239)">
        <g transform="matrix(1,0,0,1,-149.532648,-8.026511)">
            <path d="M355.191,21.859L359.071,30.572L366.788,24.966C370.432,26.481 373.865,28.463 377,30.862L376.003,40.347L385.489,39.351C387.888,42.485 389.87,45.918 391.385,49.563L385.779,57.28L394.492,61.159C395.002,65.073 395.002,69.037 394.492,72.951L385.779,76.831L391.385,84.548C389.87,88.193 387.888,91.625 385.489,94.76L376.003,93.763L377,103.249C373.865,105.648 370.432,107.63 366.788,109.145L359.071,103.539L355.191,112.252C351.277,112.763 347.313,112.763 343.399,112.252L339.519,103.539L331.803,109.145C328.158,107.63 324.725,105.648 321.591,103.249L322.587,93.763L313.102,94.76C310.702,91.625 308.72,88.193 307.206,84.548L312.811,76.831L304.098,72.951C303.588,69.037 303.588,65.073 304.098,61.159L312.811,57.28L307.206,49.563C308.72,45.918 310.702,42.485 313.102,39.351L322.587,40.347L321.591,30.862C324.725,28.463 328.158,26.481 331.803,24.966L339.519,30.572L343.399,21.859C347.313,21.348 351.277,21.348 355.191,21.859ZM349.295,49.77C358.835,49.77 366.581,57.515 366.581,67.055C366.581,76.596 358.835,84.341 349.295,84.341C339.755,84.341 332.009,76.596 332.009,67.055C332.009,57.515 339.755,49.77 349.295,49.77Z" style="fill:rgb(58,59,59);"/>
        </g>
        <g transform="matrix(7.354318,0,0,7.45673,82.093392,-60.278854)">
            <circle cx="16" cy="16" r="3.5" style="fill:currentColor;"/>
        </g>
        <g transform="matrix(9.162403,0,0,9.162403,53.164036,-87.974566)">
            <circle cx="16" cy="16" r="1.8" style="fill:rgb(36,36,36);"/>
        </g>
    </g>
</svg>
