<?xml version="1.0" encoding="UTF-8" standalone="no"?>
<!DOCTYPE svg PUBLIC "-//W3C//DTD SVG 1.1//EN" "http://www.w3.org/Graphics/SVG/1.1/DTD/svg11.dtd">
<svg width="100%" height="100%" viewBox="0 0 42 44" version="1.1" xmlns="http://www.w3.org/2000/svg" xmlns:xlink="http://www.w3.org/1999/xlink" xml:space="preserve" xmlns:serif="http://www.serif.com/" style="fill-rule:evenodd;clip-rule:evenodd;stroke-linecap:round;">
    <g transform="matrix(1,0,0,1,-160.517604,-9.767535)">
        <g transform="matrix(0.744693,0,0,0.744693,156.049446,5.299378)">
            <path d="M62,10.029L62,57.971C62,60.195 60.195,62 57.971,62L10.029,62C7.805,62 6,60.195 6,57.971L6,10.029C6,7.805 7.805,6 10.029,6L57.971,6C60.195,6 62,7.805 62,10.029Z" style="fill:rgb(197,253,4);"/>
        </g>
        <g transform="matrix(0.461946,0,0,0.724106,163.811733,8.115572)">
            <path d="M19.67,50.798C43.379,56.886 52.842,45.429 40.355,34C24.928,19.88 36.82,12.014 53.275,13.024" style="fill:none;fill-rule:nonzero;stroke:rgb(11,11,11);stroke-width:5.76px;"/>
        </g>
        <g transform="matrix(1.417256,0,0,1.489672,151.631379,-36.170658)">
            <circle cx="14" cy="54" r="3.5" style="fill:white;"/>
        </g>
        <g transform="matrix(1.082323,0,0,1.088454,126.088468,1.302655)">
            <circle cx="58" cy="14" r="3.5" style="fill:white;"/>
        </g>
    </g>
</svg>
